<mxfile host="app.diagrams.net" modified="2023-05-01T16:09:31.272Z" agent="Mozilla/5.0 (Windows NT 10.0; Win64; x64) AppleWebKit/537.36 (KHTML, like Gecko) Chrome/112.0.0.0 Safari/537.36" etag="uo5vZ4fwI6_4YTnY2COG" version="21.2.3" type="device">
  <diagram id="C5RBs43oDa-KdzZeNtuy" name="Page-1">
    <mxGraphModel dx="1221" dy="629" grid="1" gridSize="10" guides="1" tooltips="1" connect="1" arrows="1" fold="1" page="1" pageScale="1" pageWidth="827" pageHeight="1169" math="0" shadow="0">
      <root>
        <mxCell id="WIyWlLk6GJQsqaUBKTNV-0" />
        <mxCell id="WIyWlLk6GJQsqaUBKTNV-1" parent="WIyWlLk6GJQsqaUBKTNV-0" />
        <mxCell id="zkfFHV4jXpPFQw0GAbJ--0" value="EmployeeController" style="swimlane;fontStyle=3;align=center;verticalAlign=top;childLayout=stackLayout;horizontal=1;startSize=26;horizontalStack=0;resizeParent=1;resizeLast=0;collapsible=1;marginBottom=0;rounded=0;shadow=0;strokeWidth=1;" parent="WIyWlLk6GJQsqaUBKTNV-1" vertex="1">
          <mxGeometry x="20" y="80" width="500" height="100" as="geometry">
            <mxRectangle x="230" y="140" width="160" height="26" as="alternateBounds" />
          </mxGeometry>
        </mxCell>
        <mxCell id="zkfFHV4jXpPFQw0GAbJ--1" value="- employeeService : EmployeeService" style="text;align=left;verticalAlign=top;spacingLeft=4;spacingRight=4;overflow=hidden;rotatable=0;points=[[0,0.5],[1,0.5]];portConstraint=eastwest;fontSize=14;" parent="zkfFHV4jXpPFQw0GAbJ--0" vertex="1">
          <mxGeometry y="26" width="500" height="22" as="geometry" />
        </mxCell>
        <mxCell id="zkfFHV4jXpPFQw0GAbJ--4" value="" style="line;html=1;strokeWidth=1;align=left;verticalAlign=middle;spacingTop=-1;spacingLeft=3;spacingRight=3;rotatable=0;labelPosition=right;points=[];portConstraint=eastwest;" parent="zkfFHV4jXpPFQw0GAbJ--0" vertex="1">
          <mxGeometry y="48" width="500" height="8" as="geometry" />
        </mxCell>
        <mxCell id="zkfFHV4jXpPFQw0GAbJ--5" value="+ getAllContractWithPage(nameCustomer:String, page : int) : Page&lt;Contract&gt;&#xa;+findById(id : Integer)&#xa;" style="text;align=left;verticalAlign=top;spacingLeft=4;spacingRight=4;overflow=hidden;rotatable=0;points=[[0,0.5],[1,0.5]];portConstraint=eastwest;fontSize=14;" parent="zkfFHV4jXpPFQw0GAbJ--0" vertex="1">
          <mxGeometry y="56" width="500" height="42" as="geometry" />
        </mxCell>
        <mxCell id="p_vLv650tliG4-6YPgfI-1" value="" style="endArrow=diamondThin;html=1;rounded=0;endFill=1;endSize=11;exitX=0.5;exitY=0;exitDx=0;exitDy=0;entryX=0.488;entryY=1.038;entryDx=0;entryDy=0;entryPerimeter=0;" parent="WIyWlLk6GJQsqaUBKTNV-1" source="p_vLv650tliG4-6YPgfI-25" target="zkfFHV4jXpPFQw0GAbJ--5" edge="1">
          <mxGeometry width="50" height="50" relative="1" as="geometry">
            <mxPoint x="310" y="250" as="sourcePoint" />
            <mxPoint x="265" y="180" as="targetPoint" />
          </mxGeometry>
        </mxCell>
        <mxCell id="p_vLv650tliG4-6YPgfI-62" value="owns" style="edgeLabel;html=1;align=center;verticalAlign=middle;resizable=0;points=[];fontSize=14;" parent="p_vLv650tliG4-6YPgfI-1" vertex="1" connectable="0">
          <mxGeometry x="0.2936" y="1" relative="1" as="geometry">
            <mxPoint x="-24" y="-1" as="offset" />
          </mxGeometry>
        </mxCell>
        <mxCell id="p_vLv650tliG4-6YPgfI-12" value="Contract" style="swimlane;fontStyle=0;childLayout=stackLayout;horizontal=1;startSize=50;horizontalStack=0;resizeParent=1;resizeParentMax=0;resizeLast=0;collapsible=1;marginBottom=0;whiteSpace=wrap;html=1;" parent="WIyWlLk6GJQsqaUBKTNV-1" vertex="1">
          <mxGeometry x="650" y="120" width="260" height="390" as="geometry" />
        </mxCell>
        <mxCell id="p_vLv650tliG4-6YPgfI-42" value="- contractId : Integer&lt;br style=&quot;border-color: var(--border-color);&quot;&gt;&lt;span style=&quot;&quot;&gt;- items : String&lt;/span&gt;&lt;br style=&quot;border-color: var(--border-color);&quot;&gt;&lt;span style=&quot;&quot;&gt;- beginDate : localDateTime&lt;/span&gt;&lt;br style=&quot;border-color: var(--border-color);&quot;&gt;&lt;span style=&quot;&quot;&gt;- endDate : localDateTime&lt;/span&gt;&lt;br style=&quot;border-color: var(--border-color);&quot;&gt;&lt;span style=&quot;&quot;&gt;- isFlag : boolean&lt;/span&gt;&lt;br style=&quot;border-color: var(--border-color);&quot;&gt;&lt;span style=&quot;&quot;&gt;- customer : Customer&lt;/span&gt;&lt;br style=&quot;border-color: var(--border-color);&quot;&gt;&lt;span style=&quot;&quot;&gt;- product : Product&lt;/span&gt;&lt;br style=&quot;border-color: var(--border-color);&quot;&gt;&lt;span style=&quot;&quot;&gt;- sellingDate : localDateTime&lt;/span&gt;&lt;br style=&quot;border-color: var(--border-color);&quot;&gt;&lt;span style=&quot;&quot;&gt;- status : Status&lt;/span&gt;&lt;br style=&quot;border-color: var(--border-color);&quot;&gt;&lt;span style=&quot;&quot;&gt;- interest : String&lt;/span&gt;" style="text;html=1;strokeColor=none;fillColor=none;align=left;verticalAlign=middle;whiteSpace=wrap;rounded=0;fontSize=14;" parent="p_vLv650tliG4-6YPgfI-12" vertex="1">
          <mxGeometry y="50" width="260" height="220" as="geometry" />
        </mxCell>
        <mxCell id="p_vLv650tliG4-6YPgfI-13" value="&lt;font style=&quot;font-size: 14px;&quot;&gt;+ Contract()&lt;br&gt;+ getter() / setter()&lt;br&gt;&lt;/font&gt;" style="text;strokeColor=none;fillColor=none;align=left;verticalAlign=middle;spacingLeft=4;spacingRight=4;overflow=hidden;points=[[0,0.5],[1,0.5]];portConstraint=eastwest;rotatable=0;whiteSpace=wrap;html=1;" parent="p_vLv650tliG4-6YPgfI-12" vertex="1">
          <mxGeometry y="270" width="260" height="120" as="geometry" />
        </mxCell>
        <mxCell id="p_vLv650tliG4-6YPgfI-46" value="" style="endArrow=none;html=1;rounded=0;strokeColor=#000000;fontSize=14;endSize=11;" parent="p_vLv650tliG4-6YPgfI-12" edge="1">
          <mxGeometry width="50" height="50" relative="1" as="geometry">
            <mxPoint y="270" as="sourcePoint" />
            <mxPoint x="260" y="269" as="targetPoint" />
          </mxGeometry>
        </mxCell>
        <mxCell id="p_vLv650tliG4-6YPgfI-25" value="&lt;&lt;interface&gt;&gt;&#xa;EmployeeService&#xa;" style="swimlane;fontStyle=3;align=center;verticalAlign=top;childLayout=stackLayout;horizontal=1;startSize=40;horizontalStack=0;resizeParent=1;resizeLast=0;collapsible=1;marginBottom=0;rounded=0;shadow=0;strokeWidth=1;" parent="WIyWlLk6GJQsqaUBKTNV-1" vertex="1">
          <mxGeometry x="10" y="290" width="510" height="130" as="geometry">
            <mxRectangle x="230" y="140" width="160" height="26" as="alternateBounds" />
          </mxGeometry>
        </mxCell>
        <mxCell id="p_vLv650tliG4-6YPgfI-27" value="" style="line;html=1;strokeWidth=1;align=left;verticalAlign=middle;spacingTop=-1;spacingLeft=3;spacingRight=3;rotatable=0;labelPosition=right;points=[];portConstraint=eastwest;" parent="p_vLv650tliG4-6YPgfI-25" vertex="1">
          <mxGeometry y="40" width="510" height="40" as="geometry" />
        </mxCell>
        <mxCell id="p_vLv650tliG4-6YPgfI-28" value="+ findAllContractWithPage(nameCustomer : String, page : int) : Page&lt;Contract&gt;&#xa;+findById(id : Integer)&#xa;" style="text;align=left;verticalAlign=top;spacingLeft=4;spacingRight=4;overflow=hidden;rotatable=0;points=[[0,0.5],[1,0.5]];portConstraint=eastwest;fontSize=14;" parent="p_vLv650tliG4-6YPgfI-25" vertex="1">
          <mxGeometry y="80" width="510" height="50" as="geometry" />
        </mxCell>
        <mxCell id="p_vLv650tliG4-6YPgfI-29" value="EmployeeServiceImpl" style="swimlane;fontStyle=3;align=center;verticalAlign=top;childLayout=stackLayout;horizontal=1;startSize=26;horizontalStack=0;resizeParent=1;resizeLast=0;collapsible=1;marginBottom=0;rounded=0;shadow=0;strokeWidth=1;" parent="WIyWlLk6GJQsqaUBKTNV-1" vertex="1">
          <mxGeometry x="5" y="515" width="520" height="140" as="geometry">
            <mxRectangle x="230" y="140" width="160" height="26" as="alternateBounds" />
          </mxGeometry>
        </mxCell>
        <mxCell id="p_vLv650tliG4-6YPgfI-31" value="" style="line;html=1;strokeWidth=1;align=left;verticalAlign=middle;spacingTop=-1;spacingLeft=3;spacingRight=3;rotatable=0;labelPosition=right;points=[];portConstraint=eastwest;" parent="p_vLv650tliG4-6YPgfI-29" vertex="1">
          <mxGeometry y="26" width="520" height="54" as="geometry" />
        </mxCell>
        <mxCell id="p_vLv650tliG4-6YPgfI-32" value="+ getAllContractWithPage(nameCustomer:String, page : int) : Page&lt;Contract&gt;&#xa;+findById(id : Integer)&#xa;" style="text;align=left;verticalAlign=top;spacingLeft=4;spacingRight=4;overflow=hidden;rotatable=0;points=[[0,0.5],[1,0.5]];portConstraint=eastwest;fontSize=14;" parent="p_vLv650tliG4-6YPgfI-29" vertex="1">
          <mxGeometry y="80" width="520" height="60" as="geometry" />
        </mxCell>
        <mxCell id="p_vLv650tliG4-6YPgfI-33" value="" style="endArrow=block;html=1;rounded=0;endFill=0;endSize=11;exitX=0.5;exitY=0;exitDx=0;exitDy=0;dashed=1;" parent="WIyWlLk6GJQsqaUBKTNV-1" source="p_vLv650tliG4-6YPgfI-29" target="p_vLv650tliG4-6YPgfI-28" edge="1">
          <mxGeometry width="50" height="50" relative="1" as="geometry">
            <mxPoint x="230" y="550" as="sourcePoint" />
            <mxPoint x="235" y="420" as="targetPoint" />
          </mxGeometry>
        </mxCell>
        <mxCell id="p_vLv650tliG4-6YPgfI-63" value="realizes" style="edgeLabel;html=1;align=center;verticalAlign=middle;resizable=0;points=[];fontSize=14;" parent="p_vLv650tliG4-6YPgfI-33" vertex="1" connectable="0">
          <mxGeometry x="-0.5744" y="-3" relative="1" as="geometry">
            <mxPoint x="-38" y="-22" as="offset" />
          </mxGeometry>
        </mxCell>
        <mxCell id="p_vLv650tliG4-6YPgfI-34" value="&lt;&lt;interface&gt;&gt;&#xa;EmployeeRepository" style="swimlane;fontStyle=3;align=center;verticalAlign=top;childLayout=stackLayout;horizontal=1;startSize=50;horizontalStack=0;resizeParent=1;resizeLast=0;collapsible=1;marginBottom=0;rounded=0;shadow=0;strokeWidth=1;" parent="WIyWlLk6GJQsqaUBKTNV-1" vertex="1">
          <mxGeometry x="5" y="750" width="520" height="120" as="geometry">
            <mxRectangle x="230" y="140" width="160" height="26" as="alternateBounds" />
          </mxGeometry>
        </mxCell>
        <mxCell id="p_vLv650tliG4-6YPgfI-35" value="" style="line;html=1;strokeWidth=1;align=left;verticalAlign=middle;spacingTop=-1;spacingLeft=3;spacingRight=3;rotatable=0;labelPosition=right;points=[];portConstraint=eastwest;" parent="p_vLv650tliG4-6YPgfI-34" vertex="1">
          <mxGeometry y="50" width="520" height="54" as="geometry" />
        </mxCell>
        <mxCell id="p_vLv650tliG4-6YPgfI-37" value="" style="endArrow=diamondThin;html=1;rounded=0;endFill=1;endSize=11;exitX=0.5;exitY=0;exitDx=0;exitDy=0;entryX=0.501;entryY=0.983;entryDx=0;entryDy=0;entryPerimeter=0;" parent="WIyWlLk6GJQsqaUBKTNV-1" source="p_vLv650tliG4-6YPgfI-34" target="p_vLv650tliG4-6YPgfI-32" edge="1">
          <mxGeometry width="50" height="50" relative="1" as="geometry">
            <mxPoint x="234.5" y="750" as="sourcePoint" />
            <mxPoint x="235" y="670" as="targetPoint" />
          </mxGeometry>
        </mxCell>
        <mxCell id="p_vLv650tliG4-6YPgfI-64" value="owns" style="edgeLabel;html=1;align=center;verticalAlign=middle;resizable=0;points=[];fontSize=14;" parent="p_vLv650tliG4-6YPgfI-37" vertex="1" connectable="0">
          <mxGeometry x="-0.499" relative="1" as="geometry">
            <mxPoint x="-25" y="-25" as="offset" />
          </mxGeometry>
        </mxCell>
        <mxCell id="p_vLv650tliG4-6YPgfI-38" value="&lt;&lt;interface&gt;&gt;&#xa;JpaRepository" style="swimlane;fontStyle=3;align=center;verticalAlign=top;childLayout=stackLayout;horizontal=1;startSize=50;horizontalStack=0;resizeParent=1;resizeLast=0;collapsible=1;marginBottom=0;rounded=0;shadow=0;strokeWidth=1;" parent="WIyWlLk6GJQsqaUBKTNV-1" vertex="1">
          <mxGeometry x="125" y="970" width="280" height="104" as="geometry">
            <mxRectangle x="230" y="140" width="160" height="26" as="alternateBounds" />
          </mxGeometry>
        </mxCell>
        <mxCell id="p_vLv650tliG4-6YPgfI-39" value="" style="line;html=1;strokeWidth=1;align=left;verticalAlign=middle;spacingTop=-1;spacingLeft=3;spacingRight=3;rotatable=0;labelPosition=right;points=[];portConstraint=eastwest;" parent="p_vLv650tliG4-6YPgfI-38" vertex="1">
          <mxGeometry y="50" width="280" height="54" as="geometry" />
        </mxCell>
        <mxCell id="p_vLv650tliG4-6YPgfI-51" value="" style="endArrow=block;html=1;rounded=0;strokeColor=#000000;fontSize=14;endSize=11;entryX=0.5;entryY=0;entryDx=0;entryDy=0;exitX=0.5;exitY=1;exitDx=0;exitDy=0;endFill=0;" parent="WIyWlLk6GJQsqaUBKTNV-1" source="p_vLv650tliG4-6YPgfI-34" target="p_vLv650tliG4-6YPgfI-38" edge="1">
          <mxGeometry width="50" height="50" relative="1" as="geometry">
            <mxPoint x="210" y="930" as="sourcePoint" />
            <mxPoint x="260" y="880" as="targetPoint" />
          </mxGeometry>
        </mxCell>
        <mxCell id="p_vLv650tliG4-6YPgfI-65" value="is" style="edgeLabel;html=1;align=center;verticalAlign=middle;resizable=0;points=[];fontSize=14;" parent="p_vLv650tliG4-6YPgfI-51" vertex="1" connectable="0">
          <mxGeometry x="-0.5363" y="2" relative="1" as="geometry">
            <mxPoint x="-27" y="13" as="offset" />
          </mxGeometry>
        </mxCell>
        <mxCell id="p_vLv650tliG4-6YPgfI-53" value="" style="endArrow=classic;html=1;rounded=0;strokeColor=#000000;fontSize=14;endSize=11;exitX=1;exitY=0.25;exitDx=0;exitDy=0;dashed=1;" parent="WIyWlLk6GJQsqaUBKTNV-1" source="p_vLv650tliG4-6YPgfI-34" target="p_vLv650tliG4-6YPgfI-13" edge="1">
          <mxGeometry width="50" height="50" relative="1" as="geometry">
            <mxPoint x="480" y="790" as="sourcePoint" />
            <mxPoint x="640" y="500" as="targetPoint" />
          </mxGeometry>
        </mxCell>
        <mxCell id="p_vLv650tliG4-6YPgfI-61" value="uses" style="edgeLabel;html=1;align=center;verticalAlign=middle;resizable=0;points=[];fontSize=14;" parent="p_vLv650tliG4-6YPgfI-53" vertex="1" connectable="0">
          <mxGeometry x="0.1348" y="2" relative="1" as="geometry">
            <mxPoint x="-16" y="-10" as="offset" />
          </mxGeometry>
        </mxCell>
        <mxCell id="p_vLv650tliG4-6YPgfI-54" value="" style="endArrow=classic;html=1;rounded=0;strokeColor=#000000;fontSize=14;endSize=11;exitX=1;exitY=0.444;exitDx=0;exitDy=0;exitPerimeter=0;dashed=1;entryX=0.007;entryY=0.6;entryDx=0;entryDy=0;entryPerimeter=0;" parent="WIyWlLk6GJQsqaUBKTNV-1" source="p_vLv650tliG4-6YPgfI-31" target="p_vLv650tliG4-6YPgfI-13" edge="1">
          <mxGeometry width="50" height="50" relative="1" as="geometry">
            <mxPoint x="480" y="480" as="sourcePoint" />
            <mxPoint x="540" y="450" as="targetPoint" />
          </mxGeometry>
        </mxCell>
        <mxCell id="p_vLv650tliG4-6YPgfI-60" value="uses" style="edgeLabel;html=1;align=center;verticalAlign=middle;resizable=0;points=[];fontSize=14;" parent="p_vLv650tliG4-6YPgfI-54" vertex="1" connectable="0">
          <mxGeometry x="-0.2639" y="-3" relative="1" as="geometry">
            <mxPoint x="-9" y="-29" as="offset" />
          </mxGeometry>
        </mxCell>
        <mxCell id="p_vLv650tliG4-6YPgfI-55" value="" style="endArrow=classic;html=1;rounded=0;strokeColor=#000000;fontSize=14;endSize=11;dashed=1;entryX=0.003;entryY=0.908;entryDx=0;entryDy=0;entryPerimeter=0;exitX=1;exitY=0.309;exitDx=0;exitDy=0;exitPerimeter=0;" parent="WIyWlLk6GJQsqaUBKTNV-1" source="p_vLv650tliG4-6YPgfI-25" target="p_vLv650tliG4-6YPgfI-42" edge="1">
          <mxGeometry width="50" height="50" relative="1" as="geometry">
            <mxPoint x="460" y="330" as="sourcePoint" />
            <mxPoint x="540" y="330" as="targetPoint" />
          </mxGeometry>
        </mxCell>
        <mxCell id="p_vLv650tliG4-6YPgfI-59" value="uses" style="edgeLabel;html=1;align=center;verticalAlign=middle;resizable=0;points=[];fontSize=14;" parent="p_vLv650tliG4-6YPgfI-55" vertex="1" connectable="0">
          <mxGeometry x="-0.2658" y="-1" relative="1" as="geometry">
            <mxPoint x="3" y="-21" as="offset" />
          </mxGeometry>
        </mxCell>
        <mxCell id="p_vLv650tliG4-6YPgfI-56" value="" style="endArrow=classic;html=1;rounded=0;strokeColor=#000000;fontSize=14;endSize=11;exitX=1.001;exitY=0.192;exitDx=0;exitDy=0;exitPerimeter=0;dashed=1;" parent="WIyWlLk6GJQsqaUBKTNV-1" source="zkfFHV4jXpPFQw0GAbJ--0" target="p_vLv650tliG4-6YPgfI-12" edge="1">
          <mxGeometry width="50" height="50" relative="1" as="geometry">
            <mxPoint x="480" y="140" as="sourcePoint" />
            <mxPoint x="540" y="100" as="targetPoint" />
          </mxGeometry>
        </mxCell>
        <mxCell id="p_vLv650tliG4-6YPgfI-58" value="uses" style="edgeLabel;html=1;align=center;verticalAlign=middle;resizable=0;points=[];fontSize=14;" parent="p_vLv650tliG4-6YPgfI-56" vertex="1" connectable="0">
          <mxGeometry x="-0.2634" y="-2" relative="1" as="geometry">
            <mxPoint x="18" y="-10" as="offset" />
          </mxGeometry>
        </mxCell>
      </root>
    </mxGraphModel>
  </diagram>
</mxfile>
